<svg width="249" height="132" viewBox="0 0 249 132" fill="none" xmlns="http://www.w3.org/2000/svg">
<path d="M205.489 4.63046C186.739 -6.83693 162.935 10.0924 147.989 14.6033L146.358 21.6685C164.32 15.6087 185.326 7.6196 203.886 10.2283C205.842 10.5 207.744 12.1305 210.054 11.0435C210.815 8.51633 207.473 5.82612 205.489 4.63046Z" fill="#8BC47E"/>
<path fill-rule="evenodd" clip-rule="evenodd" d="M236.304 66.0978C229.048 71.3967 221.249 67.6739 219.402 60.3913C218.043 55.0109 219.13 48.9783 220.244 43.1087C221.331 37.2935 223.206 31.3967 221.956 26.587C217.907 25.2011 214.728 29.1413 213.315 31.288C207.499 40.1467 207.282 54.9294 204.374 65.4457C200.679 66.9946 194.673 68.625 190.679 69.1141C190.054 65.2826 191.412 61.6957 192.092 57.8098C194.048 46.6957 195.706 34.9293 197.989 23.788C201.983 22.9457 206.576 21.0435 210.19 20.8533C211.304 22.5652 210.217 25.1196 210.543 27.2391C210.543 27.5109 210.298 27.6467 210.407 27.9728C213.206 23.2446 220.108 14.712 228.804 13.8152C233.505 13.3261 237.635 16.4511 237.853 23.3533C238.016 28.4076 235.869 34.413 234.864 40.2011C233.342 48.5435 231.358 56.2065 236.304 66.0978Z" fill="#8BC47E"/>
<path fill-rule="evenodd" clip-rule="evenodd" d="M83.3155 50.337C84.6198 49.4402 84.2394 47.5109 86.0329 46.4783C88.6687 44.9294 93.1796 44.9294 96.06 44.1141C96.0872 49.087 94.8916 54.413 93.8318 60.4185C93.4514 62.538 92.5546 65.4728 92.2829 68.6793C92.0927 70.962 92.4731 76.2609 95.272 76.3424C99.022 76.4511 101.06 70.2826 101.821 68C103.18 64.0054 102.989 60.6087 104.647 57.5109C105.815 57.375 106.93 57.2663 107.609 57.9728C108.886 60.1739 107.446 63.2174 106.631 66.0707C104.484 73.5978 100.299 84.5761 90.5709 87.0217C85.8155 88.2174 82.0383 86.5598 79.8916 82.3478C77.147 86.8587 69.2394 96.4783 60.2177 93.2717C56.6579 91.9946 54.1035 88.0815 53.1253 83.2446C50.2992 68.9239 59.5383 50.4457 74.1579 48.1087C76.9296 47.6196 80.4622 47.7826 83.3155 50.337ZM66.8481 68.5435C65.897 73 65.272 81.4783 68.6416 83.4348C71.6307 85.2011 74.5655 81.2065 75.7068 79.3315C79.0764 73.8152 78.9677 70.4728 80.0818 64.0326C80.4622 61.7772 82.3101 57.8641 81.2503 55.5544C80.0003 52.837 76.6307 53.6522 74.9731 54.413C70.1633 56.6413 68.0166 63.163 66.8481 68.5435Z" fill="#8BC47E"/>
<path fill-rule="evenodd" clip-rule="evenodd" d="M174.945 30.6087C176.25 29.712 175.869 27.7826 177.663 26.75C180.299 25.1739 184.837 25.1739 187.717 24.3587C187.744 29.3587 186.549 34.6576 185.489 40.663C185.108 42.7826 184.212 45.6902 183.94 48.9239C183.75 51.2065 184.13 56.5054 186.929 56.587C190.679 56.6957 192.717 50.5272 193.478 48.2446C194.837 44.25 194.646 40.8533 196.331 37.7554C197.5 37.6196 198.614 37.5109 199.293 38.2174C200.57 40.4185 199.13 43.462 198.315 46.3152C196.168 53.8424 191.983 64.8207 182.255 67.2663C177.5 68.462 173.723 66.8043 171.576 62.5924C168.831 67.1033 160.924 76.7228 151.902 73.5163C148.342 72.2391 145.788 68.3261 144.81 63.4891C141.983 49.1685 151.223 30.6902 165.842 28.3533C168.56 27.8913 172.092 28.0543 174.945 30.6087ZM158.478 48.8152C157.527 53.2717 156.902 61.75 160.271 63.7065C163.261 65.4457 166.195 61.4783 167.337 59.6033C170.706 54.087 170.598 50.7446 171.712 44.3043C172.092 42.0489 173.94 38.1359 172.88 35.8261C171.63 33.1087 168.261 33.9239 166.603 34.6848C161.793 36.913 159.646 43.4348 158.478 48.8152Z" fill="#8BC47E"/>
<path fill-rule="evenodd" clip-rule="evenodd" d="M218.453 71.0707C218.588 77.2935 208.587 77.2391 202.392 78.8696C157.718 90.663 111.169 103.543 67.6092 115.201C62.8266 111.315 57.7179 107.864 53.6418 103C54.0495 102.81 54.0766 102.402 54.5929 102.293C105.49 92.2663 157.636 81.9946 209.24 71.8315C212.31 71.2337 215.463 69.7663 218.453 71.0707Z" fill="#8BC47E"/>
<path d="M137.527 7.64674C136.576 11.0978 136.929 15.3098 135.136 18.2446C131.168 20.5 126.712 22.4837 122.092 24.3587C121.957 21.6685 123.56 19.9565 122.69 16.8587C117.989 18.1359 114.511 20.1196 110.38 21.7228C109.62 24.4402 109.81 27.7283 108.696 30.2826L107.663 37.1304C107.717 45.0109 101.359 60.0652 102.935 70.3641C105.543 87.212 123.288 76.7228 127.717 68.9511C127.364 78.0543 134.973 82.9457 142.717 78.0272C137.12 64.712 141.304 55.0652 143.125 44.3859C144.565 35.9891 145.707 27.9185 147.636 20.1196C147.663 20.1196 147.663 20.1196 147.663 20.0924L148.967 11.3424H148.94C149.076 10.1467 149.266 9.00543 149.484 7.86413L150.245 2.86413C150.245 2.78261 150.272 2.67391 150.272 2.59239C146.603 3.02717 141.793 6.20652 137.527 7.64674ZM129.81 51.125C128.451 58.2717 126.929 67.8641 117.337 69.1413C113.505 63.1359 116.467 56.0978 117.5 50.2283C118.668 43.788 119.538 37.538 120.87 31.5054C125 29.6304 130 28.2174 133.533 26.0163C133.913 25.8261 134.049 26.0707 134.158 26.3696C134.239 26.6957 134.321 27.0217 134.429 27.3478C132.636 34.413 131.332 43.0543 129.81 51.125Z" fill="#8BC47E"/>
<path d="M26.7932 57.4837C27.4182 61.8587 27.69 66.288 28.9671 69.9565C28.4236 65.7446 27.7986 61.5598 26.7932 57.4837Z" fill="#8BC47E"/>
<path d="M24.5378 50.1739C25.4617 52.538 26.1954 54.9837 26.7932 57.4565C26.7117 56.8587 26.603 56.2337 26.4943 55.6359C25.353 49.0598 23.6139 42.375 20.0541 37.3478C15.3257 30.6902 5.92354 29.9565 0.298538 37.9728C12.2551 33.3804 20.4073 39.5217 24.5378 50.1739Z" fill="#8BC47E"/>
<path d="M5.97881 45.5815C9.70163 51.6957 10.544 58.0815 11.794 64.7391C12.8266 70.2011 13.0712 76.1522 14.4299 80.9891C13.4788 75.1196 12.5549 69.1413 11.4136 62.375C10.6255 57.7826 9.37554 48.6522 5.97881 45.5815Z" fill="#8BC47E"/>
<path d="M28.587 89.5761C29.6467 89.0326 30.6522 88.3804 31.5761 87.6467C30.3533 82.0217 29.7554 75.9891 28.9946 69.9565C27.7446 66.3152 27.4728 61.8587 26.8207 57.4837C26.2228 55.0109 25.4891 52.5652 24.5652 50.2011C20.4348 39.5489 12.2826 33.3804 0.353261 38.0272C0.217391 38.163 0.108696 38.3261 0 38.4891C2.58152 40.7989 4.4837 43.163 5.97826 45.5815C9.40217 48.6522 10.6522 57.7826 11.413 62.375C12.5543 69.1413 13.4783 75.0924 14.4293 80.9891C14.6739 81.8587 14.9457 82.6739 15.2717 83.462C18.2337 90.5272 23.8043 92.0217 28.587 89.5761Z" fill="#8BC47E"/>
<path d="M111.468 26.4239C116.495 21.7228 113.968 25.7446 113.506 25.962C113.234 26.0978 112.419 25.7717 110.68 27.7011C103.696 35.4185 71.4133 35.5815 66.2774 34.875C64.9459 34.6848 63.7774 34.712 61.8209 34.087C61.9024 33.9239 62.4187 32.2663 62.3916 32.2391C63.2883 29.6848 64.2394 26.5598 64.6742 23.625C65.4079 18.6522 64.7557 14.1413 60.109 13.5435C41.4405 14.1413 35.6253 33.1087 50.734 36.5054C50.5981 36.8859 46.4677 49.1685 46.4677 49.1685C43.4514 57.9728 40.4079 66.5598 37.6361 74.9565C35.7883 80.6087 34.7285 86.0435 32.2557 90.663C31.984 89.6848 31.7666 88.6793 31.5492 87.6739C30.6253 88.4076 29.647 89.0598 28.56 89.6033C23.8046 92.0489 18.2068 90.5543 15.2719 83.4891C14.9458 82.7011 14.6741 81.8859 14.4295 81.0163C15.598 88.2717 16.8481 95.4185 18.6959 103.788C20.3535 111.315 23.7231 121.071 30.109 117.946C32.6905 116.668 33.8046 110.092 35.0818 106.614C43.7231 83.1087 51.8753 60.7717 60.1905 38.1902C67.2014 40.8533 82.3372 41.913 91.0329 41.4239C96.8753 41.0978 108.56 38.0272 116.06 34.6304L111.821 25.8261C111.739 25.9076 109.674 28.1359 111.468 26.4239ZM53.7231 19.6576C57.935 18.2174 52.9622 30.3641 52.4731 31.8859C52.4731 31.913 52.4731 31.913 52.4459 31.9402C42.772 30.4457 50.4079 21.0163 53.7231 19.6576Z" fill="#8BC47E"/>
</svg>
