<?xml version="1.0" encoding="UTF-8"?>
<svg width="249px" height="132px" viewBox="0 0 249 132" version="1.1" xmlns="http://www.w3.org/2000/svg" xmlns:xlink="http://www.w3.org/1999/xlink">
    <title>Vattan PS</title>
    <g id="Page-1" stroke="none" stroke-width="1" fill="none" fill-rule="evenodd">
        <g id="vattan" transform="translate(0.000000, -2.000000)" fill="#8BC47E">
            <path d="M205.488859,6.63046196 C186.738859,-4.83692935 162.934511,12.0924185 147.988859,16.6032609 L146.358424,23.6684783 C164.32038,17.6086957 185.325815,9.61959239 203.885598,12.228288 C205.84212,12.5000272 207.744293,14.130462 210.054076,13.0435054 C210.814946,10.5163315 207.472554,7.82611413 205.488859,6.63046196 Z" id="Path" fill-rule="nonzero"></path>
            <path d="M236.303804,68.0978261 C229.04837,73.3967391 221.249457,69.673913 219.40163,62.3913043 C218.042935,57.0108696 219.129891,50.9782609 220.244022,45.1086957 C221.330978,39.2934783 223.205978,33.3967391 221.955978,28.5869565 C217.907065,27.201087 214.727717,31.1413043 213.314674,33.2880435 C207.499457,42.1467391 207.282065,56.9293478 204.374457,67.4456522 C200.678804,68.9945652 194.67337,70.625 190.678804,71.1141304 C190.053804,67.2826087 191.4125,63.6956522 192.091848,59.8097826 C194.04837,48.6956522 195.705978,36.9293478 197.988587,25.7880435 C201.983152,24.9456522 206.575543,23.0434783 210.189674,22.8532609 C211.303804,24.5652174 210.216848,27.1195652 210.542935,29.2391304 C210.542935,29.5108696 210.29837,29.6467391 210.407065,29.9728261 C213.205978,25.2445652 220.108152,16.7119565 228.803804,15.8152446 C233.504891,15.3261141 237.635326,18.451087 237.852717,25.3532609 C238.015761,30.4076087 235.869022,36.4130435 234.863587,42.201087 C233.341848,50.5434783 231.358152,58.2065217 236.303804,68.0978261 Z" id="Path"></path>
            <path d="M83.3154891,52.3369565 C84.619837,51.4402174 84.2394022,49.5108696 86.0328804,48.4782609 C88.66875,46.9293478 93.1796196,46.9293478 96.0600543,46.1141304 C96.0872283,51.0869565 94.8915761,56.4130435 93.8317935,62.4184783 C93.4513587,64.5380435 92.5546196,67.4728261 92.2828804,70.6793478 C92.092663,72.9619565 92.4730978,78.2608696 95.2720109,78.3423913 C99.0220109,78.451087 101.060054,72.2826087 101.820924,70 C103.17962,66.0054348 102.989402,62.6086957 104.647011,59.5108696 C105.815489,59.375 106.92962,59.2663043 107.608967,59.9728261 C108.886141,62.173913 107.445924,65.2173913 106.630707,68.0706522 C104.483967,75.5978261 100.299185,86.576087 90.5709239,89.0217391 C85.8154891,90.2173913 82.0383152,88.5597826 79.8915761,84.3478261 C77.1470109,88.8586957 69.2394022,98.4782609 60.217663,95.2717391 C56.6578804,93.9945652 54.1035326,90.0815217 53.1252717,85.2445652 C50.2991848,70.923913 59.5383152,52.4456522 74.1578804,50.1086957 C76.9296196,49.6195652 80.4622283,49.7826087 83.3154891,52.3369565 Z M66.8480978,70.5434783 C65.8970109,75 65.2720109,83.4782609 68.6415761,85.4347826 C71.6307065,87.201087 74.5654891,83.2065217 75.7067935,81.3315217 C79.0763587,75.8152174 78.967663,72.4728261 80.0817935,66.0326087 C80.4622283,63.7771739 82.3100543,59.8641304 81.2502717,57.5543478 C80.0002717,54.8369565 76.6307065,55.6521739 74.9730978,56.4130435 C70.1633152,58.6413043 68.0165761,65.1630435 66.8480978,70.5434783 Z" id="Shape"></path>
            <path d="M174.94538,32.6086957 C176.249728,31.7119565 175.869293,29.7826087 177.662772,28.75 C180.298641,27.173913 184.836685,27.173913 187.71712,26.3586957 C187.744293,31.3586957 186.548641,36.6576087 185.488859,42.6630435 C185.108424,44.7826087 184.211685,47.6902174 183.939946,50.923913 C183.749728,53.2065217 184.130163,58.5054348 186.929076,58.5869565 C190.679076,58.6956522 192.71712,52.5271739 193.477989,50.2445652 C194.836685,46.25 194.646467,42.8532609 196.33125,39.7554348 C197.499728,39.6195652 198.613859,39.5108696 199.293207,40.2173913 C200.57038,42.4184783 199.130163,45.4619565 198.314946,48.3152174 C196.168207,55.8423913 191.983424,66.8206522 182.255163,69.2663043 C177.499728,70.4619565 173.722554,68.8043478 171.575815,64.5923913 C168.83125,69.1032609 160.923641,78.7228261 151.901902,75.5163043 C148.34212,74.2391304 145.787772,70.326087 144.809511,65.4891304 C141.983424,51.1684783 151.222554,32.6902174 165.84212,30.3532609 C168.559511,29.8913043 172.09212,30.0543478 174.94538,32.6086957 Z M158.477989,50.8152174 C157.526902,55.2717391 156.901902,63.75 160.271467,65.7065217 C163.260598,67.4456522 166.19538,63.4782609 167.336685,61.6032609 C170.70625,56.0869565 170.597554,52.7445652 171.711685,46.3043478 C172.09212,44.048913 173.939946,40.1358696 172.880163,37.826087 C171.630163,35.1086957 168.260598,35.923913 166.602989,36.6847826 C161.793207,38.9130435 159.646467,45.4347826 158.477989,50.8152174 Z" id="Shape"></path>
            <path d="M218.453001,73.0706522 C218.5875,79.2934783 208.5875,79.2391304 202.391848,80.8695652 C157.717935,92.6630435 111.169022,105.543478 67.6092391,117.201087 C62.8266304,113.315217 57.7179348,109.86413 53.6418478,105 C54.0494565,104.809783 54.0766304,104.402174 54.5929348,104.293478 C105.489674,94.2663043 157.636413,83.9945652 209.239674,73.8315217 C212.310326,73.2336957 215.4625,71.7663043 218.453001,73.0706522 Z" id="Path"></path>
            <path d="M137.527174,9.64673913 C136.576087,13.0978261 136.929348,17.3097826 135.13587,20.2445652 C131.168478,22.5 126.711957,24.4836957 122.092391,26.3586957 C121.956522,23.6684783 123.559783,21.9565217 122.690217,18.8586957 C117.98913,20.1358696 114.51087,22.1195652 110.380435,23.7228261 C109.619565,26.4402174 109.809783,29.7282609 108.695652,32.2826087 L107.663043,39.1304348 C107.717391,47.0108696 101.358696,62.0652174 102.934783,72.3641304 C105.543478,89.2119565 123.288043,78.7228261 127.717391,70.951087 C127.36413,80.0543478 134.972826,84.9456522 142.717391,80.0271739 C137.119565,66.7119565 141.304348,57.0652174 143.125,46.3858696 C144.565217,37.9891304 145.706522,29.9184783 147.63587,22.1195652 C147.663043,22.1195652 147.663043,22.1195652 147.663043,22.0923913 L148.967391,13.3423913 L148.940217,13.3423913 C149.076087,12.1467391 149.266304,11.0054348 149.483696,9.86413043 L150.244565,4.86413043 C150.244565,4.7826087 150.271739,4.67391304 150.271739,4.5923913 C146.603261,5.02717391 141.793478,8.20652174 137.527174,9.64673913 Z M129.809783,53.125 C128.451087,60.2717391 126.929348,69.8641304 117.336957,71.1413043 C113.505435,65.1358696 116.467391,58.0978261 117.5,52.2282609 C118.668478,45.7880435 119.538043,39.5380435 120.869565,33.5054348 C125,31.6304348 130,30.2173913 133.532609,28.0163043 C133.913043,27.826087 134.048913,28.0706522 134.157609,28.3695652 C134.23913,28.6956522 134.320652,29.0217391 134.429348,29.3478261 C132.63587,36.4130435 131.331522,45.0543478 129.809783,53.125 Z" id="Shape" fill-rule="nonzero"></path>
            <path d="M26.7932065,59.4836957 C27.4182065,63.8586957 27.6899457,68.2880435 28.9671196,71.9565217 C28.4236413,67.7445652 27.7986413,63.5597826 26.7932065,59.4836957 Z" id="Path" fill-rule="nonzero"></path>
            <path d="M24.5377717,52.173913 C25.4616848,54.5380435 26.1953804,56.9836957 26.7932065,59.4565217 C26.7116848,58.8586957 26.6029891,58.2336957 26.4942935,57.6358696 C25.3529891,51.0597826 23.6138587,44.375 20.0540761,39.3478261 C15.3257065,32.6902174 5.92353261,31.9565217 0.298532609,39.9728261 C12.2550543,35.3804348 20.407337,41.5217391 24.5377717,52.173913 Z" id="Path" fill-rule="nonzero"></path>
            <path d="M5.97880435,47.5815217 C9.70163043,53.6956522 10.5440217,60.0815217 11.7940217,66.7391304 C12.8266304,72.201087 13.0711957,78.1521739 14.4298913,82.9891304 C13.4788043,77.1195652 12.5548913,71.1413043 11.413587,64.375 C10.6255435,59.7826087 9.37554348,50.6521739 5.97880435,47.5815217 Z" id="Path" fill-rule="nonzero"></path>
            <path d="M28.5869565,91.576087 C29.6467391,91.0326087 30.6521739,90.3804348 31.576087,89.6467391 C30.3532609,84.0217391 29.7554348,77.9891304 28.9945652,71.9565217 C27.7445652,68.3152174 27.4728261,63.8586957 26.8206522,59.4836957 C26.2228261,57.0108696 25.4891304,54.5652174 24.5652174,52.201087 C20.4347826,41.548913 12.2826087,35.3804348 0.35326087,40.0271739 C0.217391304,40.1630435 0.108695652,40.326087 0,40.4891304 C2.58152174,42.798913 4.48369565,45.1630435 5.97826087,47.5815217 C9.40217391,50.6521739 10.6521739,59.7826087 11.4130435,64.375 C12.5543478,71.1413043 13.4782609,77.0923913 14.4293478,82.9891304 C14.673913,83.8586957 14.9456522,84.673913 15.2717391,85.4619565 C18.2336957,92.5271739 23.8043478,94.0217391 28.5869565,91.576087 Z" id="Path" fill-rule="nonzero"></path>
            <path d="M111.467663,28.423913 C116.494837,23.7228261 113.967663,27.7445652 113.505707,27.9619565 C113.233967,28.0978261 112.41875,27.7717391 110.67962,29.701087 C103.695924,37.4184783 71.4133152,37.5815217 66.2774457,36.875 C64.9459239,36.6847826 63.7774457,36.7119565 61.8209239,36.0869565 C61.9024457,35.923913 62.41875,34.2663043 62.3915761,34.2391304 C63.2883152,31.6847826 64.2394022,28.5597826 64.6741848,25.625 C65.4078804,20.6521739 64.7557065,16.1413043 60.1089674,15.5434783 C41.4404891,16.1413043 35.6252717,35.1086957 50.7339674,38.5054348 C50.5980978,38.8858696 46.467663,51.1684783 46.467663,51.1684783 C43.4513587,59.9728261 40.4078804,68.5597826 37.6361413,76.9565217 C35.7883152,82.6086957 34.7285326,88.0434783 32.2557065,92.6630435 C31.9839674,91.6847826 31.7665761,90.6793478 31.5491848,89.673913 C30.6252717,90.4076087 29.6470109,91.0597826 28.5600543,91.6032609 C23.8046196,94.048913 18.2067935,92.5543478 15.2719022,85.4891304 C14.9458152,84.701087 14.6740761,83.8858696 14.4295109,83.0163043 C15.5979891,90.2717391 16.8480978,97.4184783 18.6959239,105.788043 C20.3535326,113.315217 23.7230978,123.070652 30.1089674,119.945652 C32.6904891,118.668478 33.8046196,112.092391 35.0817935,108.61413 C43.7230978,85.1086957 51.8752717,62.7717391 60.1904891,40.1902174 C67.2013587,42.8532609 82.3372283,43.9130435 91.0328804,43.423913 C96.8752717,43.0978261 108.560054,40.0271739 116.060054,36.6304348 L111.820924,27.826087 C111.739402,27.9076087 109.674185,30.1358696 111.467663,28.423913 Z M53.7230978,21.6576087 C57.9350543,20.2173913 52.9622283,32.3641304 52.4730978,33.8858696 C52.4730978,33.9130435 52.4730978,33.9130435 52.4459239,33.9402174 C42.7720109,32.4456522 50.4078804,23.0163043 53.7230978,21.6576087 Z" id="Shape" fill-rule="nonzero"></path>
            <path d="M205.570652,101.313587 L191.065217,101.313587 L191.065217,132.72663 L198.6875,132.72663 L198.6875,125.6125 L205.524457,125.6125 C213.5625,125.6125 217.48913,119.607065 217.48913,113.416848 C217.48913,107.319022 213.608696,101.313587 205.570652,101.313587 Z M204.692935,108.335326 C207.741848,108.381522 209.820652,110.044565 209.820652,113.416848 C209.820652,116.835326 207.741848,118.636957 204.692935,118.636957 L198.6875,118.636957 L198.6875,108.335326 L204.692935,108.335326 Z M235.152446,100.759239 C227.99212,100.759239 222.35625,105.009239 222.35625,110.7375 C222.35625,117.713043 230.625272,119.468478 235.337228,120.577174 C238.247554,121.270109 240.880707,121.963043 240.880707,123.949457 C240.880707,125.28913 239.633424,126.721196 236.261141,126.721196 C230.024728,126.721196 229.424185,121.732065 229.424185,121.732065 L221.894293,121.732065 C221.894293,126.628804 226.005707,133.280978 235.84538,133.280978 C243.190489,133.280978 248.456793,129.53913 248.456793,123.533696 C248.456793,116.604348 241.48125,114.941304 236.538315,113.647826 C232.103533,112.492935 230.024728,111.892391 230.024728,110.367935 C230.024728,108.566304 232.796467,107.55 235.060054,107.55 C238.29375,107.55 240.141576,109.675 240.141576,111.245652 L247.671467,111.245652 C247.671467,106.348913 243.329076,100.759239 235.152446,100.759239 Z" id="Shape" fill-rule="nonzero"></path>
        </g>
    </g>
</svg>